%
M48
M72
T01C0.0300
T02C0.0315
T03C0.0320
T04C0.0350
T05C0.0354
T06C0.0400
T07C0.0472
T08C0.1575
T09C0.1654
T10C0.1969
%
T01
X4892Y51630
X5392Y51630
X5892Y51630
X6392Y51630
X11585Y51630
X12085Y51630
X12585Y51630
X13085Y51630
X18278Y51630
X18778Y51630
X19278Y51630
X19778Y51630
X24971Y51630
X25471Y51630
X25971Y51630
X26471Y51630
X31663Y51630
X32163Y51630
X32663Y51630
X33163Y51630
X38356Y51630
X38856Y51630
X39356Y51630
X39856Y51630
X76742Y51630
X77242Y51630
X77742Y51630
X78242Y51630
X83632Y51630
X84132Y51630
X84632Y51630
X85132Y51630
T02
X69417Y48630
X68417Y48630
X67417Y48630
X66417Y48630
X68417Y51630
T03
X52917Y42630
X48417Y42630
T04
X60605Y50630
T05
X61197Y50630
X58638Y50630
T06
X2639Y8217
X3739Y8217
X91615Y8236
X92715Y8236
T07
X57933Y44018
X56555Y44018
X54927Y44249
X53549Y44249
X52171Y44249
X50793Y44249
X49415Y44249
X48037Y44249
X46659Y44249
X45281Y44249
X43658Y44018
X42280Y44018
T08
X45609Y38532
X53876Y38532
T09
X74343Y34791
X74343Y9004
X24539Y9004
X24539Y34791
T10
X3083Y37055
X7413Y8512
X92059Y37055
X96390Y8512
M30
