G75*
%MOIN*%
%OFA0B0*%
%FSLAX24Y24*%
%IPPOS*%
%LPD*%
%AMOC8*
5,1,8,0,0,1.08239X$1,22.5*
%
%ADD10C,0.1811*%
%ADD11C,0.2126*%
%ADD12C,0.1732*%
%ADD13C,0.0669*%
%ADD14R,0.0709X0.0374*%
%ADD15R,0.0757X0.0857*%
%ADD16R,0.0857X0.0757*%
%ADD17C,0.0957*%
%ADD18R,0.0787X0.0768*%
%ADD19R,0.0957X0.0957*%
%ADD20C,0.0757*%
%ADD21C,0.0689*%
%ADD22R,0.1157X0.1157*%
%ADD23C,0.0607*%
%ADD24OC8,0.0957*%
%ADD25C,0.0707*%
D10*
X024539Y009004D03*
X024539Y034791D03*
X074343Y034791D03*
X074343Y009004D03*
D11*
X096390Y008512D03*
X092059Y037055D03*
X007413Y008512D03*
X003083Y037055D03*
D12*
X045609Y038532D03*
X053876Y038532D03*
D13*
X066417Y048630D03*
X067417Y048630D03*
X068417Y048630D03*
X069417Y048630D03*
X068417Y051630D03*
D14*
X055117Y050628D03*
X054015Y050254D03*
X054015Y051002D03*
D15*
X054024Y048690D03*
X055228Y048690D03*
X039708Y049630D03*
X038505Y049630D03*
X033015Y049630D03*
X031812Y049630D03*
X026322Y049630D03*
X025119Y049630D03*
X019629Y049630D03*
X018426Y049630D03*
X012937Y049630D03*
X011733Y049630D03*
X006244Y049630D03*
X005040Y049630D03*
X076890Y049630D03*
X078094Y049630D03*
X083780Y049630D03*
X084984Y049630D03*
D16*
X070917Y047232D03*
X070917Y046028D03*
X068917Y046028D03*
X068917Y047232D03*
X066917Y047232D03*
X066917Y046028D03*
X064917Y046028D03*
X064917Y047232D03*
D17*
X057933Y044018D03*
X054927Y044249D03*
X053549Y044249D03*
X052171Y044249D03*
X050793Y044249D03*
X049415Y044249D03*
X048037Y044249D03*
X046659Y044249D03*
X045281Y044249D03*
X043658Y044018D03*
D18*
X006813Y043453D03*
X006813Y045421D03*
X001321Y045421D03*
X001321Y043453D03*
X092672Y043453D03*
X092672Y045421D03*
X098164Y045421D03*
X098164Y043453D03*
D19*
X056555Y044018D03*
X042280Y044018D03*
D20*
X002639Y008517D02*
X002639Y007917D01*
X003739Y007917D02*
X003739Y008517D01*
X091615Y008536D02*
X091615Y007936D01*
X092715Y007936D02*
X092715Y008536D01*
D21*
X061197Y050630D03*
X058638Y050630D03*
D22*
X058917Y048130D03*
X060917Y048130D03*
D23*
X076742Y051405D02*
X076742Y051855D01*
X077242Y051855D02*
X077242Y051405D01*
X077742Y051405D02*
X077742Y051855D01*
X078242Y051855D02*
X078242Y051405D01*
X083632Y051405D02*
X083632Y051855D01*
X084132Y051855D02*
X084132Y051405D01*
X084632Y051405D02*
X084632Y051855D01*
X085132Y051855D02*
X085132Y051405D01*
X039856Y051405D02*
X039856Y051855D01*
X039356Y051855D02*
X039356Y051405D01*
X038856Y051405D02*
X038856Y051855D01*
X038356Y051855D02*
X038356Y051405D01*
X033163Y051405D02*
X033163Y051855D01*
X032663Y051855D02*
X032663Y051405D01*
X032163Y051405D02*
X032163Y051855D01*
X031663Y051855D02*
X031663Y051405D01*
X026471Y051405D02*
X026471Y051855D01*
X025971Y051855D02*
X025971Y051405D01*
X025471Y051405D02*
X025471Y051855D01*
X024971Y051855D02*
X024971Y051405D01*
X019778Y051405D02*
X019778Y051855D01*
X019278Y051855D02*
X019278Y051405D01*
X018778Y051405D02*
X018778Y051855D01*
X018278Y051855D02*
X018278Y051405D01*
X013085Y051405D02*
X013085Y051855D01*
X012585Y051855D02*
X012585Y051405D01*
X012085Y051405D02*
X012085Y051855D01*
X011585Y051855D02*
X011585Y051405D01*
X006392Y051405D02*
X006392Y051855D01*
X005892Y051855D02*
X005892Y051405D01*
X005392Y051405D02*
X005392Y051855D01*
X004892Y051855D02*
X004892Y051405D01*
D24*
X048417Y042630D03*
X052917Y042630D03*
D25*
X060605Y050630D03*
M02*
